<mxfile host="app.diagrams.net" agent="Mozilla/5.0 (Macintosh; Intel Mac OS X 10_15_7) AppleWebKit/537.36 (KHTML, like Gecko) Chrome/130.0.0.0 Safari/537.36" version="24.8.3">
  <diagram name="Page-1" id="iPxniwL-uj9Jycb2jcTf">
    <mxGraphModel dx="1195" dy="683" grid="1" gridSize="10" guides="1" tooltips="1" connect="1" arrows="1" fold="1" page="1" pageScale="1" pageWidth="550" pageHeight="700" math="0" shadow="0">
      <root>
        <mxCell id="0" />
        <mxCell id="1" parent="0" />
        <mxCell id="ITI4MnM3E74FtWf_5-Pb-8" style="edgeStyle=orthogonalEdgeStyle;rounded=0;orthogonalLoop=1;jettySize=auto;html=1;exitX=0.5;exitY=1;exitDx=0;exitDy=0;entryX=0.5;entryY=0;entryDx=0;entryDy=0;" edge="1" parent="1" source="ITI4MnM3E74FtWf_5-Pb-1" target="ITI4MnM3E74FtWf_5-Pb-5">
          <mxGeometry relative="1" as="geometry" />
        </mxCell>
        <mxCell id="ITI4MnM3E74FtWf_5-Pb-22" style="edgeStyle=orthogonalEdgeStyle;rounded=0;orthogonalLoop=1;jettySize=auto;html=1;entryX=0.5;entryY=0;entryDx=0;entryDy=0;" edge="1" parent="1" source="ITI4MnM3E74FtWf_5-Pb-1" target="ITI4MnM3E74FtWf_5-Pb-20">
          <mxGeometry relative="1" as="geometry" />
        </mxCell>
        <mxCell id="ITI4MnM3E74FtWf_5-Pb-23" style="edgeStyle=orthogonalEdgeStyle;rounded=0;orthogonalLoop=1;jettySize=auto;html=1;exitX=1;exitY=0.5;exitDx=0;exitDy=0;" edge="1" parent="1" source="ITI4MnM3E74FtWf_5-Pb-1" target="ITI4MnM3E74FtWf_5-Pb-6">
          <mxGeometry relative="1" as="geometry" />
        </mxCell>
        <mxCell id="ITI4MnM3E74FtWf_5-Pb-1" value="New data file is submitted on the Google Form" style="rounded=1;whiteSpace=wrap;html=1;fillColor=#dae8fc;strokeColor=#6c8ebf;" vertex="1" parent="1">
          <mxGeometry x="170.01" y="112" width="190" height="50" as="geometry" />
        </mxCell>
        <mxCell id="ITI4MnM3E74FtWf_5-Pb-14" style="edgeStyle=orthogonalEdgeStyle;rounded=0;orthogonalLoop=1;jettySize=auto;html=1;exitX=0.5;exitY=1;exitDx=0;exitDy=0;entryX=0.5;entryY=0;entryDx=0;entryDy=0;" edge="1" parent="1" source="ITI4MnM3E74FtWf_5-Pb-5" target="ITI4MnM3E74FtWf_5-Pb-18">
          <mxGeometry relative="1" as="geometry">
            <mxPoint x="265.01" y="392" as="targetPoint" />
            <Array as="points">
              <mxPoint x="265.01" y="327" />
              <mxPoint x="266.01" y="327" />
            </Array>
          </mxGeometry>
        </mxCell>
        <mxCell id="ITI4MnM3E74FtWf_5-Pb-5" value="CSV, Excel,&amp;nbsp;&lt;div&gt;or XLS&lt;/div&gt;" style="ellipse;whiteSpace=wrap;html=1;aspect=fixed;fillColor=#e1d5e7;strokeColor=#9673a6;" vertex="1" parent="1">
          <mxGeometry x="225" y="182" width="80" height="80" as="geometry" />
        </mxCell>
        <mxCell id="ITI4MnM3E74FtWf_5-Pb-6" value="PDF" style="ellipse;whiteSpace=wrap;html=1;aspect=fixed;fillColor=#e1d5e7;strokeColor=#9673a6;" vertex="1" parent="1">
          <mxGeometry x="370.01" y="182" width="80" height="80" as="geometry" />
        </mxCell>
        <mxCell id="ITI4MnM3E74FtWf_5-Pb-41" style="edgeStyle=orthogonalEdgeStyle;rounded=0;orthogonalLoop=1;jettySize=auto;html=1;exitX=0.5;exitY=1;exitDx=0;exitDy=0;entryX=0.5;entryY=0;entryDx=0;entryDy=0;" edge="1" parent="1" source="ITI4MnM3E74FtWf_5-Pb-18" target="ITI4MnM3E74FtWf_5-Pb-32">
          <mxGeometry relative="1" as="geometry" />
        </mxCell>
        <mxCell id="ITI4MnM3E74FtWf_5-Pb-18" value="&lt;div&gt;Run the Python script and check output in Google Sheet&lt;/div&gt;" style="whiteSpace=wrap;html=1;aspect=fixed;fillColor=#d5e8d4;strokeColor=#82b366;" vertex="1" parent="1">
          <mxGeometry x="215.01" y="372" width="100" height="100" as="geometry" />
        </mxCell>
        <mxCell id="ITI4MnM3E74FtWf_5-Pb-19" value="Make sure columns are named correctly&amp;nbsp;&lt;i&gt;or&amp;nbsp;&lt;/i&gt;change naming in Python script" style="rounded=1;whiteSpace=wrap;html=1;fillColor=#ffe6cc;strokeColor=#d79b00;" vertex="1" parent="1">
          <mxGeometry x="180.01" y="282" width="170" height="60" as="geometry" />
        </mxCell>
        <mxCell id="ITI4MnM3E74FtWf_5-Pb-25" style="edgeStyle=orthogonalEdgeStyle;rounded=0;orthogonalLoop=1;jettySize=auto;html=1;exitX=0.5;exitY=1;exitDx=0;exitDy=0;entryX=0;entryY=0.5;entryDx=0;entryDy=0;" edge="1" parent="1" source="ITI4MnM3E74FtWf_5-Pb-20" target="ITI4MnM3E74FtWf_5-Pb-18">
          <mxGeometry relative="1" as="geometry" />
        </mxCell>
        <mxCell id="ITI4MnM3E74FtWf_5-Pb-20" value="Google Spreadsheet" style="ellipse;whiteSpace=wrap;html=1;aspect=fixed;fillColor=#e1d5e7;strokeColor=#9673a6;" vertex="1" parent="1">
          <mxGeometry x="80.00999999999999" y="182" width="80" height="80" as="geometry" />
        </mxCell>
        <mxCell id="ITI4MnM3E74FtWf_5-Pb-47" style="edgeStyle=orthogonalEdgeStyle;rounded=0;orthogonalLoop=1;jettySize=auto;html=1;exitX=1;exitY=0.5;exitDx=0;exitDy=0;entryX=0.5;entryY=0;entryDx=0;entryDy=0;" edge="1" parent="1" source="ITI4MnM3E74FtWf_5-Pb-28" target="ITI4MnM3E74FtWf_5-Pb-1">
          <mxGeometry relative="1" as="geometry" />
        </mxCell>
        <mxCell id="ITI4MnM3E74FtWf_5-Pb-28" value="&lt;span style=&quot;color: rgb(0, 0, 0); font-family: Helvetica; font-size: 12px; font-style: normal; font-variant-ligatures: normal; font-variant-caps: normal; font-weight: 400; letter-spacing: normal; orphans: 2; text-indent: 0px; text-transform: none; widows: 2; word-spacing: 0px; -webkit-text-stroke-width: 0px; white-space: normal; background-color: rgb(251, 251, 251); text-decoration-thickness: initial; text-decoration-style: initial; text-decoration-color: initial; float: none; display: inline !important;&quot;&gt;Run the Python script and download output. Put in the &quot;baddie&quot; tracker and send back to VoPro&lt;/span&gt;" style="text;whiteSpace=wrap;html=1;align=center;" vertex="1" parent="1">
          <mxGeometry x="360.01" y="272" width="112" height="89" as="geometry" />
        </mxCell>
        <mxCell id="ITI4MnM3E74FtWf_5-Pb-42" style="edgeStyle=orthogonalEdgeStyle;rounded=0;orthogonalLoop=1;jettySize=auto;html=1;exitX=0;exitY=0.5;exitDx=0;exitDy=0;entryX=1;entryY=0.5;entryDx=0;entryDy=0;" edge="1" parent="1" source="ITI4MnM3E74FtWf_5-Pb-32" target="ITI4MnM3E74FtWf_5-Pb-38">
          <mxGeometry relative="1" as="geometry" />
        </mxCell>
        <mxCell id="ITI4MnM3E74FtWf_5-Pb-43" style="edgeStyle=orthogonalEdgeStyle;rounded=0;orthogonalLoop=1;jettySize=auto;html=1;exitX=1;exitY=0.5;exitDx=0;exitDy=0;" edge="1" parent="1" source="ITI4MnM3E74FtWf_5-Pb-32" target="ITI4MnM3E74FtWf_5-Pb-39">
          <mxGeometry relative="1" as="geometry" />
        </mxCell>
        <mxCell id="ITI4MnM3E74FtWf_5-Pb-32" value="Run Portal Job" style="rhombus;whiteSpace=wrap;html=1;fillColor=#e1d5e7;strokeColor=#9673a6;" vertex="1" parent="1">
          <mxGeometry x="210" y="502" width="110" height="105" as="geometry" />
        </mxCell>
        <mxCell id="ITI4MnM3E74FtWf_5-Pb-35" value="&lt;span style=&quot;forced-color-adjust: none; color: rgb(0, 0, 0); font-family: Helvetica; font-size: 12px; font-variant-ligatures: normal; font-variant-caps: normal; font-weight: 400; letter-spacing: normal; orphans: 2; text-indent: 0px; text-transform: none; widows: 2; word-spacing: 0px; -webkit-text-stroke-width: 0px; white-space: nowrap; background-color: rgb(251, 251, 251); text-decoration-thickness: initial; text-decoration-style: initial; text-decoration-color: initial;&quot;&gt;Change county,&amp;nbsp;&lt;/span&gt;&lt;span style=&quot;text-wrap-mode: nowrap;&quot;&gt;folder,&amp;nbsp;&lt;/span&gt;&lt;div style=&quot;forced-color-adjust: none; color: rgb(0, 0, 0); font-family: Helvetica; font-size: 12px; font-variant-ligatures: normal; font-variant-caps: normal; font-weight: 400; letter-spacing: normal; orphans: 2; text-indent: 0px; text-transform: none; widows: 2; word-spacing: 0px; -webkit-text-stroke-width: 0px; white-space: normal; background-color: rgb(251, 251, 251); text-decoration-thickness: initial; text-decoration-style: initial; text-decoration-color: initial;&quot;&gt;&lt;div style=&quot;forced-color-adjust: none; text-wrap-mode: nowrap;&quot;&gt;timestamp&amp;nbsp;&lt;span style=&quot;forced-color-adjust: none; background-color: initial;&quot;&gt;params&amp;nbsp;&lt;/span&gt;&lt;/div&gt;&lt;div style=&quot;forced-color-adjust: none; text-wrap-mode: nowrap;&quot;&gt;&lt;span style=&quot;forced-color-adjust: none; background-color: initial;&quot;&gt;before&amp;nbsp;&lt;/span&gt;&lt;span style=&quot;forced-color-adjust: none; background-color: initial;&quot;&gt;running job&lt;/span&gt;&lt;/div&gt;&lt;/div&gt;" style="text;whiteSpace=wrap;html=1;align=center;fontStyle=2" vertex="1" parent="1">
          <mxGeometry x="210" y="607" width="120.01" height="60" as="geometry" />
        </mxCell>
        <mxCell id="ITI4MnM3E74FtWf_5-Pb-38" value="Put Texting List in Tracker" style="ellipse;whiteSpace=wrap;html=1;aspect=fixed;fillColor=#d5e8d4;strokeColor=#82b366;" vertex="1" parent="1">
          <mxGeometry x="90.00999999999999" y="514.5" width="80" height="80" as="geometry" />
        </mxCell>
        <mxCell id="ITI4MnM3E74FtWf_5-Pb-39" value="Put &quot;baddies&quot; in Tracker" style="ellipse;whiteSpace=wrap;html=1;aspect=fixed;fillColor=#d5e8d4;strokeColor=#82b366;" vertex="1" parent="1">
          <mxGeometry x="360" y="514.5" width="80" height="80" as="geometry" />
        </mxCell>
        <mxCell id="ITI4MnM3E74FtWf_5-Pb-44" value="&lt;span style=&quot;text-wrap-mode: nowrap;&quot;&gt;Notify Malina&lt;/span&gt;" style="text;whiteSpace=wrap;html=1;align=center;fontStyle=2" vertex="1" parent="1">
          <mxGeometry x="70" y="594.5" width="120.01" height="60" as="geometry" />
        </mxCell>
        <mxCell id="ITI4MnM3E74FtWf_5-Pb-45" value="&lt;span style=&quot;text-wrap-mode: nowrap;&quot;&gt;Notify VoPro&lt;/span&gt;" style="text;whiteSpace=wrap;html=1;align=center;fontStyle=2" vertex="1" parent="1">
          <mxGeometry x="350" y="594.5" width="120.01" height="60" as="geometry" />
        </mxCell>
        <mxCell id="ITI4MnM3E74FtWf_5-Pb-46" value="Election Day Ballot Cure Process Flow" style="text;html=1;align=center;verticalAlign=middle;whiteSpace=wrap;rounded=0;fontSize=18;fontStyle=1" vertex="1" parent="1">
          <mxGeometry x="170" y="32" width="190" height="30" as="geometry" />
        </mxCell>
      </root>
    </mxGraphModel>
  </diagram>
</mxfile>
